<!-- Generated by IcoMoon.io -->
<svg version="1.1" xmlns="http://www.w3.org/2000/svg" width="59" height="32" viewBox="0 0 59 32">
<title>daleko-logo</title>
<path d="M10.075 21.556v4.653h-1.808l-0.301-2.644h-5.858l-0.301 2.644h-1.808v-4.653h0.803c0.234-0.268 0.435-0.602 0.569-1.004s0.268-0.937 0.402-1.64c0.134-0.703 0.268-1.674 0.435-2.979l0.435-3.481h6.46v9.105zM6.561 14.393h-1.707l-0.134 1.339c-0.134 1.238-0.268 2.209-0.435 2.946s-0.335 1.339-0.569 1.774c-0.234 0.435-0.502 0.803-0.87 1.105h3.682zM18.979 21.791c0.1 0.134 0.234 0.268 0.435 0.335l-0.536 1.64c-0.536-0.033-0.937-0.167-1.272-0.335-0.335-0.201-0.602-0.469-0.77-0.904-0.569 0.837-1.406 1.272-2.577 1.272-0.837 0-1.506-0.234-2.008-0.736s-0.736-1.138-0.736-1.908c0-0.937 0.335-1.64 1.038-2.142 0.669-0.502 1.674-0.736 2.946-0.736h0.87v-0.335c0-0.502-0.1-0.837-0.335-1.038-0.201-0.201-0.602-0.268-1.105-0.268-0.268 0-0.602 0.033-1.004 0.134-0.402 0.067-0.803 0.201-1.205 0.335l-0.569-1.674c0.536-0.201 1.071-0.368 1.64-0.469s1.071-0.167 1.573-0.167c1.205 0 2.109 0.268 2.678 0.77s0.837 1.238 0.837 2.243v3.28c-0.033 0.301 0 0.536 0.1 0.703zM16.368 21.188v-1.506h-0.636c-0.569 0-1.004 0.1-1.272 0.301s-0.435 0.502-0.435 0.937c0 0.335 0.1 0.602 0.268 0.803s0.402 0.268 0.736 0.268c0.569 0.033 1.004-0.268 1.339-0.803zM28.787 15.063v8.502h-2.544v-6.628h-1.607l-0.167 1.808c-0.134 1.238-0.268 2.176-0.402 2.778-0.167 0.602-0.435 1.105-0.803 1.439-0.368 0.368-0.971 0.602-1.774 0.803l-0.636-1.841c0.368-0.167 0.602-0.335 0.736-0.502s0.268-0.469 0.335-0.837c0.067-0.402 0.134-1.038 0.201-1.975l0.301-3.548zM38.929 20.050h-5.255c0.1 0.703 0.301 1.205 0.602 1.506s0.77 0.435 1.339 0.435c0.335 0 0.669-0.067 1.004-0.201s0.669-0.301 1.038-0.569l1.038 1.406c-1.004 0.803-2.109 1.172-3.314 1.172-1.372 0-2.444-0.402-3.18-1.205s-1.105-1.908-1.105-3.28c0-0.87 0.167-1.64 0.469-2.343s0.77-1.239 1.372-1.64c0.602-0.402 1.305-0.602 2.142-0.602 1.239 0 2.176 0.368 2.879 1.138s1.038 1.841 1.038 3.213c0 0.402-0.033 0.703-0.067 0.971zM34.176 11.146c0.234 0.234 0.368 0.536 0.368 0.904s-0.134 0.636-0.368 0.904c-0.234 0.234-0.569 0.368-0.937 0.368s-0.669-0.134-0.904-0.368c-0.234-0.234-0.368-0.536-0.368-0.904s0.134-0.636 0.368-0.904c0.234-0.234 0.569-0.368 0.904-0.368 0.368 0 0.669 0.1 0.937 0.368zM36.485 18.41c-0.033-1.305-0.469-1.941-1.372-1.941-0.435 0-0.77 0.167-1.004 0.469-0.234 0.335-0.402 0.837-0.435 1.573h2.845v-0.1zM37.891 11.146c0.234 0.234 0.368 0.536 0.368 0.904s-0.134 0.636-0.368 0.904c-0.234 0.268-0.569 0.368-0.937 0.368s-0.669-0.134-0.904-0.368c-0.234-0.234-0.368-0.536-0.368-0.904s0.134-0.636 0.368-0.904c0.234-0.234 0.536-0.368 0.904-0.368s0.669 0.1 0.937 0.368zM48.837 15.063l-2.243 3.95 2.444 4.552h-2.678l-1.841-3.649h-0.77v3.649h-2.544v-8.502h2.544v3.314h0.837l1.841-3.314zM57.506 15.967c0.736 0.803 1.105 1.908 1.105 3.347 0 0.904-0.167 1.707-0.502 2.377s-0.803 1.205-1.439 1.573c-0.636 0.368-1.372 0.569-2.209 0.569-1.305 0-2.31-0.402-3.046-1.205s-1.105-1.908-1.105-3.347c0-0.904 0.167-1.707 0.502-2.377s0.803-1.205 1.439-1.573c0.636-0.368 1.372-0.569 2.209-0.569 1.305 0.033 2.31 0.435 3.046 1.205zM53.289 17.305c-0.268 0.435-0.368 1.105-0.368 2.008 0 0.937 0.134 1.607 0.368 2.042s0.636 0.636 1.172 0.636c0.502 0 0.904-0.201 1.138-0.636 0.268-0.435 0.368-1.105 0.368-2.008 0-0.937-0.134-1.607-0.368-2.042s-0.636-0.636-1.172-0.636c-0.502-0.033-0.87 0.201-1.138 0.636zM20.418 0l-1.071 8.937-8.77 0.971 8.87 1.071 0.971 8.502 1.004-8.536 8.402-0.937-8.402-1.172zM30.159 20.251l-0.669 5.389-5.456 0.569 5.556 0.636 0.569 5.155 0.636-5.155 5.255-0.569-5.255-0.703zM44.787 4.653l-0.636 5.456-5.356 0.569 5.423 0.636 0.569 5.222 0.602-5.222 5.121-0.569-5.121-0.736z"></path>
</svg>
