<!-- Generated by IcoMoon.io -->
<svg version="1.1" xmlns="http://www.w3.org/2000/svg" width="32" height="32" viewBox="0 0 32 32">
<title>yot</title>
<path d="M17.215 15.595h-2.43v7.291h2.43c1.418 0 2.43-0.203 3.038-0.81 0.81-0.608 1.013-1.62 1.013-2.835s-0.405-2.228-1.013-2.835c-0.608-0.608-1.62-0.81-3.038-0.81zM16 0c-8.911 0-16 7.089-16 16s7.089 16 16 16 16-7.089 16-16-7.291-16-16-16zM22.278 23.494c-1.215 1.013-3.038 1.418-5.063 1.418h-4.861v-13.772h-4.253v-2.025h4.051v-2.43h2.43v2.43h4.456v1.823h-4.253v2.43h2.43c2.228 0 3.848 0.405 5.063 1.418s1.823 2.228 1.823 4.051c0 2.228-0.608 3.646-1.823 4.658z"></path>
</svg>
