<?xml version="1.0" encoding="UTF-8" standalone="no"?>
<!-- Created with Inkscape (http://www.inkscape.org/) -->

<svg
   xmlns:dc="http://purl.org/dc/elements/1.1/"
   xmlns:cc="http://creativecommons.org/ns#"
   xmlns:rdf="http://www.w3.org/1999/02/22-rdf-syntax-ns#"
   xmlns:svg="http://www.w3.org/2000/svg"
   xmlns="http://www.w3.org/2000/svg"
   xmlns:sodipodi="http://sodipodi.sourceforge.net/DTD/sodipodi-0.dtd"
   xmlns:inkscape="http://www.inkscape.org/namespaces/inkscape"
   width="200mm"
   height="168.26756mm"
   viewBox="0 0 200 168.26756"
   version="1.1"
   id="svg313"
   inkscape:version="0.92.0 r15299"
   sodipodi:docname="logos.svg">
  <defs
     id="defs307" />
  <sodipodi:namedview
     id="base"
     pagecolor="#ffffff"
     bordercolor="#666666"
     borderopacity="1.0"
     inkscape:pageopacity="0.0"
     inkscape:pageshadow="2"
     inkscape:zoom="0.35"
     inkscape:cx="409.13902"
     inkscape:cy="523.33768"
     inkscape:document-units="mm"
     inkscape:current-layer="layer1"
     showgrid="false"
     fit-margin-top="0"
     fit-margin-left="0"
     fit-margin-right="0"
     fit-margin-bottom="0"
     inkscape:window-width="1600"
     inkscape:window-height="847"
     inkscape:window-x="-8"
     inkscape:window-y="-8"
     inkscape:window-maximized="1" />
  <metadata
     id="metadata310">
    <rdf:RDF>
      <cc:Work
         rdf:about="">
        <dc:format>image/svg+xml</dc:format>
        <dc:type
           rdf:resource="http://purl.org/dc/dcmitype/StillImage" />
        <dc:title></dc:title>
      </cc:Work>
    </rdf:RDF>
  </metadata>
  <g
     inkscape:label="Layer 1"
     inkscape:groupmode="layer"
     id="layer1"
     transform="translate(-155.49388,-21.488002)">
    <path
       inkscape:connector-curvature="0"
       class="st0"
       d="m 193.46427,137.55242 c -0.48825,-0.48725 -0.73253,-1.221 -0.73253,-2.13661 0,-1.15985 0.36606,-2.01453 1.15989,-2.56393 0.79359,-0.5496 1.95343,-0.85468 3.54064,-0.85468 h 1.70926 v 4.0902 c -0.85463,1.46502 -2.07558,2.19755 -3.66274,2.19755 -0.85462,0 -1.52611,-0.24387 -2.01452,-0.73253 z m -4.76153,-7.32541 c 1.83133,-1.34308 4.5784,-2.01463 8.058,-2.01463 h 2.38079 v -0.97666 c 0,-1.34294 -0.30523,-2.31975 -0.85463,-2.8081 -0.61044,-0.48826 -1.58721,-0.79368 -3.05228,-0.79368 -0.73254,0 -1.64826,0.12118 -2.74707,0.30572 -1.0988,0.24388 -2.19765,0.48825 -3.29645,0.91572 l -1.2209,-3.4797 c -1.22094,3.29646 -1.77034,7.20338 -1.28199,11.17138 0.42741,-0.91577 1.09885,-1.70925 2.01453,-2.31965 z m 63.30432,-1.7094 c -0.0614,-3.54059 -1.28193,-5.31094 -3.72377,-5.31094 -1.22089,0 -2.13661,0.42741 -2.74706,1.28199 -0.67154,0.85468 -1.03776,2.3197 -1.22089,4.33432 h 7.75277 v -0.30572 z M 294.5559,72.111476 c 0,1.892385 -1.52616,3.479698 -3.47959,3.479698 -1.89244,0 -3.4796,-1.526218 -3.4796,-3.479698 0,-1.892384 1.52612,-3.479596 3.4796,-3.479596 1.95343,0 3.47959,1.526217 3.47959,3.479596 z m 35.89483,28.935674 c -5.43303,2.74696 -11.78178,4.39532 -18.31371,4.39532 -22.09847,0 -40.10695,-18.00858 -40.10695,-40.107002 0,-22.098524 18.61887,-40.412327 40.71745,-40.412327 0.24438,0 -22.22062,40.412327 -22.22062,40.412327 0,0 6.22667,-0.06286 7.26442,4.883624 1.2209,5.616109 -3.78482,8.180036 -3.78482,8.180036 z M 290.16059,76.9951 c 3.47964,0.671693 6.53193,-2.380742 5.86039,-5.860338 -0.36607,-1.95348 -1.95343,-3.540642 -3.90691,-3.90696 -3.4796,-0.671692 -6.53188,2.380742 -5.86039,5.86049 0.36606,1.892284 1.95348,3.479546 3.90691,3.906808 z m -19.29042,-14.162514 -9.52312,13.002615 12.63645,22.220764 18.61892,3.723675 c 0,0 -9.0958,-3.174324 -17.09276,-17.2149 -5.67725,-10.011426 -4.63949,-21.732154 -4.63949,-21.732154 z m -80.21395,45.051674 c 1.03776,1.6481 3.29646,2.01442 4.76153,0.73253 3.84587,-3.29641 11.41555,-9.462172 20.26719,-14.773109 9.82833,-5.921434 20.45026,-10.377644 25.76124,-12.453214 1.83135,-0.732636 2.56393,-2.869149 1.58716,-4.5785 L 234.85326,62.89368 c -0.91572,-1.526216 -2.9302,-2.014574 -4.45636,-1.098954 l -46.69993,28.996772 c -1.52611,0.915721 -1.95343,2.930145 -1.03776,4.395267 z m 96.02477,-76.18501 c 0,0 -2.86915,-0.976715 -2.99124,-0.976715 -8.11904,-7.386506 -20.20609,-13.002867 -31.62164,-6.104618 -11.59869,7.020339 -9.52312,16.360324 -7.69173,24.113098 1.58716,6.776109 2.99124,12.025951 -2.74706,16.421218 -0.0614,0 -2.68602,0.24438 -2.68602,0.24438 -0.5494,0.06286 -0.85462,0.610999 -0.61049,1.098804 l 2.86915,4.944769 c 0.24438,0.427414 0.91566,0.488257 1.22089,0.06286 0,0 1.7093,-2.258602 1.7093,-2.380742 8.54641,-6.226607 6.34875,-14.589828 4.76154,-21.549072 -1.83135,-7.813868 -3.11328,-13.735352 5.49412,-18.985244 10.86615,-6.653919 21.73225,1.465122 26.37175,5.61616 0,0.06285 0.85462,2.197658 0.85462,2.197658 0.1222,0.427414 0.67155,0.549604 0.97672,0.243877 l 4.33427,-4.028898 c 0.30522,-0.18253 0.18304,-0.732636 -0.24438,-0.91567 z m 11.96496,117.14664 -1.77029,14.95614 -14.65098,1.58727 14.8341,1.77024 1.58717,14.28465 1.7093,-14.28465 14.04048,-1.58721 -14.04048,-1.95348 z m -99.87069,-92.789363 -0.91568,7.874863 -7.75282,0.854626 7.81387,0.91572 0.85463,7.508595 0.91567,-7.508595 7.4476,-0.854626 -7.4476,-1.037759 z m 119.22216,51.949773 -0.91568,7.87486 -7.75277,0.85462 7.81381,0.91578 0.85464,7.50859 0.91572,-7.50859 7.44754,-0.85473 -7.44754,-1.03781 z m -99.62652,-81.251719 -1.58716,13.368934 -13.12481,1.403977 13.30794,1.587313 1.40403,12.758487 1.52616,-12.758487 12.57541,-1.404078 -12.57541,-1.770295 z m 136.80332,34.246664 c -18.19161,0.121185 -39.0692,6.409641 -39.80173,8.912523 -2.31975,7.508695 -8.5464,14.528933 -8.5464,14.528933 l -9.95043,-5.982478 c 0,0 3.41855,-2.686016 2.56387,-8.119092 -0.73254,-4.700491 -6.47083,-6.165613 -6.47083,-6.165613 l 3.78487,-6.776059 c 0,0 10.37774,-1.159899 17.09276,5.249892 4.33421,-1.220793 28.87457,-4.761434 40.41222,-2.930144 1.58721,0.18253 1.34299,1.282038 0.91567,1.282038 z m -49.44699,2.258603 c -0.91567,-0.30472 -1.89238,0.06286 -2.07552,0.793531 -0.24437,0.732637 0.36607,1.587261 1.28194,1.892385 0.91572,0.305726 1.89244,-0.06286 2.07557,-0.793531 0.18304,-0.79348 -0.36607,-1.648257 -1.28199,-1.892385 z m 43.40352,2.07562 c 0,14.406743 -8.24118,26.860107 -20.32823,33.02567 l 2.93019,1.953482 c 12.20914,-6.898252 20.45027,-19.962013 20.45027,-34.979152 0,-0.854726 -0.0614,-1.709352 -0.0614,-2.563927 l -3.11332,0.304721 c 0.12219,0.732636 0.12219,1.526117 0.12219,2.258753 z M 314.6399,25.28956 l -1.58716,3.052133 c 0.0614,0 0.1222,0 0.24438,0 17.2759,0.488256 31.37742,12.575504 34.97915,28.752543 l 3.23542,0.18253 C 347.971,39.756644 333.13694,26.448604 314.6401,25.288905 Z m -134.30044,111.7745 v -24.78454 h -17.64221 l -1.15985,9.52307 c -0.48826,3.54075 -0.85462,6.22666 -1.22089,8.11904 -0.36607,1.89254 -0.67149,3.35767 -1.09885,4.45631 -0.36657,1.09896 -0.91568,2.01458 -1.52612,2.68612 h -2.19766 v 12.69749 h 4.94472 l 0.79358,-7.26441 h 15.99396 l 0.79358,7.26441 h 4.94471 v -12.69749 z m -6.89815,0 h -10.01147 c 0.97671,-0.79363 1.70925,-1.7704 2.3197,-2.99134 0.61054,-1.22084 1.09885,-2.80795 1.52616,-4.82248 0.42742,-2.01452 0.79358,-4.70058 1.15985,-8.0581 l 0.36607,-3.60163 h 4.63949 z m 112.14088,16.78749 c -0.12219,1.03786 -4.39527,-0.48826 -8.24118,2.62502 -1.46507,1.15995 -1.03776,4.21209 -1.40403,4.45631 -0.67154,0.42742 -1.95348,-3.05228 -3.54064,-4.70044 -1.09886,-1.15994 -4.09004,-1.89258 -5.98248,-1.77039 -2.07557,0.18253 -12.33123,2.86914 -14.71202,0.79368 -0.85462,-0.73264 -1.70925,-1.70931 -2.8081,-2.74711 -2.07552,-1.89244 -5.1278,-2.19766 -7.69173,-0.97682 -1.03781,0.48826 -2.01453,1.0989 -3.90696,2.56393 -3.41855,2.74705 -9.52312,9.88953 -9.52312,12.33137 0,3.72378 11.17137,12.087 15.56664,12.39217 1.46513,0.12119 5.55517,-2.62487 6.04353,-1.77029 0.4274,0.67164 -3.60169,2.62496 -3.35752,3.23541 0.30523,0.6717 5.12786,-0.12118 5.18891,0.85468 0.0614,0.97667 -5.49413,0.91572 -5.55517,1.58711 -0.0614,0.73259 5.7383,0.85468 5.55517,2.07552 -0.18304,1.22109 -7.26442,-0.0629 -9.70626,0.30472 -2.62497,0.36708 -2.68601,4.88368 -3.54064,4.6396 -1.03781,-0.30472 -0.24438,-3.4797 -1.83139,-5.92159 -0.79358,-1.22084 -1.77034,-2.38069 -2.56393,-3.29641 -2.19761,-2.31975 -11.78182,-10.3167 -12.94167,-13.43008 -0.18303,-0.42741 0.18303,-2.3197 0.30522,-2.80805 0.91568,-3.90691 -2.07552,-7.63069 -6.04352,-8.11899 -7.99695,-1.09886 -15.74977,-4.94472 -21.97644,-11.23243 -0.67144,-0.67169 -1.28193,-1.40408 -1.83133,-2.07567 0.79358,0.18254 1.58716,0.36607 2.50283,0.36607 3.11333,0 5.49412,-1.1598 6.95924,-3.4796 0.48826,1.09881 1.2209,1.89234 2.07552,2.44174 0.91572,0.48825 2.07557,0.79373 3.4796,0.91572 l 1.46512,-4.51726 c -0.5494,-0.18303 -0.97671,-0.48825 -1.22094,-0.91572 -0.24438,-0.42741 -0.36657,-1.03781 -0.36657,-1.89248 v -8.97367 c 0,-2.74711 -0.79359,-4.76154 -2.3197,-6.16566 -1.52617,-1.34293 -3.96801,-2.07537 -7.26447,-2.07537 -1.28194,0 -2.74706,0.12118 -4.27318,0.42741 -1.22089,0.24388 -2.38079,0.5496 -3.54064,0.97677 0.61045,-1.46513 1.40403,-2.74716 2.19766,-3.84596 17.39798,-22.708975 56.10096,-35.833831 66.72289,-39.069198 1.58721,-0.488257 3.29645,0.182531 4.09004,1.648155 l 10.13361,18.008531 c 0.85463,1.526066 0.91568,3.296462 0.5494,5.005762 -1.15989,5.55522 -3.11332,11.04929 -5.79934,17.58117 h 4.33422 v 9.03476 h 2.25871 l 5.00576,-9.03476 h 6.65397 l -6.16561,10.74401 6.65397,12.45336 h -7.26447 l -5.06676,-9.95058 h -2.07557 v 9.95058 h -6.89814 v -17.1538 c -1.83139,4.21204 -3.90691,8.85158 -6.2877,14.10142 l -2.44184,-3.29641 c -1.03776,0.67169 -1.95344,1.22095 -2.86916,1.52617 -0.85462,0.30472 -1.77029,0.48826 -2.68601,0.48826 -1.52611,0 -2.74701,-0.36708 -3.60168,-1.15991 -0.85463,-0.79353 -1.40403,-2.13671 -1.64821,-4.09004 h 14.3457 c 0.0614,-0.67169 0.12219,-1.52617 0.12219,-2.50293 0,-3.72372 -0.91567,-6.65397 -2.80806,-8.72954 -1.89243,-2.07547 -4.51741,-3.11323 -7.87491,-3.17427 -2.2587,0 -4.21214,0.5496 -5.86039,1.64815 -1.6482,1.09886 -2.86915,2.56398 -3.72378,4.45631 -0.85462,1.89244 -1.28193,3.96806 -1.28193,6.34875 0,3.72383 0.97672,6.71512 2.99119,8.91272 2.01452,2.19766 4.88367,3.29642 8.66849,3.29642 2.9302,0 5.61621,-0.91567 8.11909,-2.62487 -0.0614,0.0629 -0.0614,0.18253 -0.12219,0.24387 -0.91566,2.01453 -1.95348,8.6075 -0.85462,9.27894 1.89238,1.15996 14.58988,0.24438 17.27589,-0.5496 1.46512,-0.42741 3.47959,-5.06666 4.88367,-4.76153 0.5494,0.12118 -1.5872,4.27317 -0.97676,4.63964 0.67154,0.36607 6.04352,-2.44188 6.59297,-1.46522 0.36607,0.67169 -4.76158,3.11333 -4.5174,3.90701 0.30523,0.97666 6.34875,1.15974 6.22666,2.01438 z m -35.83377,-42.73193 c 0,0.97667 0.36606,1.77035 1.03776,2.44179 0.67153,0.67169 1.52611,0.97677 2.44183,0.97677 1.03776,0 1.83134,-0.30472 2.50283,-0.97677 0.67154,-0.67164 0.97677,-1.46512 0.97677,-2.44179 0,-0.97676 -0.30523,-1.77024 -0.97677,-2.44183 -0.67144,-0.67169 -1.52611,-0.97672 -2.50283,-0.97672 -0.97676,0 -1.77035,0.30472 -2.44183,0.97672 -0.67155,0.67164 -1.03776,1.46507 -1.03776,2.44183 z m -10.13363,0 c 0,0.97667 0.36607,1.77035 1.03782,2.44179 0.67149,0.67169 1.52611,0.97677 2.50283,0.97677 0.97676,0 1.83138,-0.30472 2.50288,-0.97677 0.67154,-0.67164 1.03776,-1.46512 1.03776,-2.44179 0,-0.97676 -0.36607,-1.77024 -1.03776,-2.44183 -0.67154,-0.67169 -1.52612,-0.97672 -2.50288,-0.97672 -0.97672,0 -1.83134,0.30472 -2.50283,0.97672 -0.6715,0.67164 -1.03782,1.46507 -1.03782,2.44183 z m -7.63068,8.24119 h -17.33699 l -0.73254,9.64516 c -0.18303,2.50293 -0.36606,4.33421 -0.5494,5.37197 -0.18303,1.03787 -0.48825,1.8315 -0.91567,2.31991 -0.36606,0.48825 -1.09885,0.91561 -2.01452,1.34297 l 1.7093,5.00577 c 2.13657,-0.48825 3.72377,-1.22099 4.82258,-2.19776 1.03781,-0.97671 1.77035,-2.25855 2.19766,-3.96801 0.42741,-1.6481 0.79358,-4.21203 1.09881,-7.63058 l 0.4274,-4.94477 h 4.39532 v 18.13063 h 6.89815 z m 66.96707,-0.73249 c -2.31971,0 -4.33423,0.48725 -6.04353,1.52606 -1.70925,1.03776 -2.99124,2.4418 -3.90691,4.27324 -0.91567,1.83128 -1.40403,4.02889 -1.40403,6.47078 0,3.90691 1.03776,6.95924 3.05223,9.09586 2.01453,2.1976 4.76159,3.23536 8.30224,3.23536 2.31974,0 4.33427,-0.48825 6.04352,-1.52616 1.7093,-1.03776 2.99124,-2.44184 3.90691,-4.27308 0.91572,-1.83134 1.40407,-4.0291 1.40407,-6.47099 0,-3.9069 -0.97671,-6.95914 -2.99124,-9.09575 -2.01452,-2.13662 -4.82262,-3.23532 -8.36326,-3.23532 z m 0,5.06676 c 1.40407,0 2.50288,0.61024 3.17436,1.7703 0.67155,1.15984 1.03781,2.99133 1.03781,5.55511 0,2.44189 -0.36606,4.27317 -1.03781,5.49412 -0.67153,1.15995 -1.77029,1.77034 -3.11332,1.77034 -1.40403,0 -2.50284,-0.61099 -3.17437,-1.77034 -0.6715,-1.15985 -1.03776,-2.99119 -1.03776,-5.55522 0,-2.44178 0.36606,-4.27313 1.03776,-5.49401 0.67153,-1.15991 1.70929,-1.7703 3.11333,-1.7703 z"
       id="path11-1-1-16-5"
       style="fill:#ffffff;fill-opacity:1;stroke-width:0.61045665"
       inkscape:export-xdpi="96"
       inkscape:export-ydpi="96" />
  </g>
</svg>
