<?xml version="1.0" encoding="UTF-8" standalone="no"?>
<!-- Generator: Adobe Illustrator 21.0.0, SVG Export Plug-In . SVG Version: 6.00 Build 0)  -->

<svg
   xmlns:dc="http://purl.org/dc/elements/1.1/"
   xmlns:cc="http://creativecommons.org/ns#"
   xmlns:rdf="http://www.w3.org/1999/02/22-rdf-syntax-ns#"
   xmlns:svg="http://www.w3.org/2000/svg"
   xmlns="http://www.w3.org/2000/svg"
   xmlns:sodipodi="http://sodipodi.sourceforge.net/DTD/sodipodi-0.dtd"
   xmlns:inkscape="http://www.inkscape.org/namespaces/inkscape"
   version="1.1"
   id="Слой_1"
   x="0px"
   y="0px"
   viewBox="0 0 175.10001 95.599998"
   xml:space="preserve"
   sodipodi:docname="DlkLogo.svg"
   width="175.10001"
   height="95.599998"
   inkscape:version="0.92.1 r15371"><metadata
     id="metadata11"><rdf:RDF><cc:Work
         rdf:about=""><dc:format>image/svg+xml</dc:format><dc:type
           rdf:resource="http://purl.org/dc/dcmitype/StillImage" /><dc:title></dc:title></cc:Work></rdf:RDF></metadata><defs
     id="defs9" /><sodipodi:namedview
     pagecolor="#ffffff"
     bordercolor="#666666"
     borderopacity="1"
     objecttolerance="10"
     gridtolerance="10"
     guidetolerance="10"
     inkscape:pageopacity="0"
     inkscape:pageshadow="2"
     inkscape:window-width="1366"
     inkscape:window-height="715"
     id="namedview7"
     showgrid="false"
     inkscape:snap-page="true"
     fit-margin-top="0"
     fit-margin-left="0"
     fit-margin-right="0"
     fit-margin-bottom="0"
     inkscape:zoom="2.1111111"
     inkscape:cx="172.26316"
     inkscape:cy="47.5"
     inkscape:window-x="-8"
     inkscape:window-y="22"
     inkscape:window-maximized="1"
     inkscape:current-layer="Слой_1" /><style
     type="text/css"
     id="style2">
	.st0{fill:#FFFFFF;}
</style><path
     class="st0"
     d="M 30.1,64.4 V 78.3 H 24.7 L 23.8,70.4 H 6.3 L 5.4,78.3 H 0 V 64.4 h 2.4 c 0.7,-0.8 1.3,-1.8 1.7,-3 0.4,-1.2 0.8,-2.8 1.2,-4.9 0.4,-2.1 0.8,-5 1.3,-8.9 L 7.9,37.2 H 27.2 V 64.4 Z M 19.6,43 h -5.1 l -0.4,4 c -0.4,3.7 -0.8,6.6 -1.3,8.8 -0.5,2.2 -1,4 -1.7,5.3 -0.7,1.3 -1.5,2.4 -2.6,3.3 h 11 z m 37.1,22.1 c 0.3,0.4 0.7,0.8 1.3,1 L 56.4,71 c -1.6,-0.1 -2.8,-0.5 -3.8,-1 -1,-0.6 -1.8,-1.4 -2.3,-2.7 -1.7,2.5 -4.2,3.8 -7.7,3.8 -2.5,0 -4.5,-0.7 -6,-2.2 -1.5,-1.5 -2.2,-3.4 -2.2,-5.7 0,-2.8 1,-4.9 3.1,-6.4 2,-1.5 5,-2.2 8.8,-2.2 h 2.6 v -1 c 0,-1.5 -0.3,-2.5 -1,-3.1 -0.6,-0.6 -1.8,-0.8 -3.3,-0.8 -0.8,0 -1.8,0.1 -3,0.4 -1.2,0.2 -2.4,0.6 -3.6,1 l -1.7,-5 c 1.6,-0.6 3.2,-1.1 4.9,-1.4 1.7,-0.3 3.2,-0.5 4.7,-0.5 3.6,0 6.3,0.8 8,2.3 1.7,1.5 2.5,3.7 2.5,6.7 V 63 c -0.1,0.9 0,1.6 0.3,2.1 z M 48.9,63.3 V 58.8 H 47 c -1.7,0 -3,0.3 -3.8,0.9 -0.8,0.6 -1.3,1.5 -1.3,2.8 0,1 0.3,1.8 0.8,2.4 0.5,0.6 1.2,0.8 2.2,0.8 1.7,0.1 3,-0.8 4,-2.4 z M 86,45 V 70.4 H 78.4 V 50.6 H 73.6 L 73.1,56 c -0.4,3.7 -0.8,6.5 -1.2,8.3 -0.5,1.8 -1.3,3.3 -2.4,4.3 -1.1,1.1 -2.9,1.8 -5.3,2.4 l -1.9,-5.5 c 1.1,-0.5 1.8,-1 2.2,-1.5 0.4,-0.5 0.8,-1.4 1,-2.5 0.2,-1.2 0.4,-3.1 0.6,-5.9 L 67,45 Z m 30.3,14.9 h -15.7 c 0.3,2.1 0.9,3.6 1.8,4.5 0.9,0.9 2.3,1.3 4,1.3 1,0 2,-0.2 3,-0.6 1,-0.4 2,-0.9 3.1,-1.7 l 3.1,4.2 c -3,2.4 -6.3,3.5 -9.9,3.5 -4.1,0 -7.3,-1.2 -9.5,-3.6 -2.2,-2.4 -3.3,-5.7 -3.3,-9.8 0,-2.6 0.5,-4.9 1.4,-7 0.9,-2.1 2.3,-3.7 4.1,-4.9 1.8,-1.2 3.9,-1.8 6.4,-1.8 3.7,0 6.5,1.1 8.6,3.4 2.1,2.3 3.1,5.5 3.1,9.6 0,1.2 -0.1,2.1 -0.2,2.9 z M 102.1,33.3 c 0.7,0.7 1.1,1.6 1.1,2.7 0,1.1 -0.4,1.9 -1.1,2.7 -0.7,0.7 -1.7,1.1 -2.8,1.1 -1.1,0 -2,-0.4 -2.7,-1.1 -0.7,-0.7 -1.1,-1.6 -1.1,-2.7 0,-1.1 0.4,-1.9 1.1,-2.7 0.7,-0.7 1.7,-1.1 2.7,-1.1 1.1,0 2,0.3 2.8,1.1 z M 109,55 c -0.1,-3.9 -1.4,-5.8 -4.1,-5.8 -1.3,0 -2.3,0.5 -3,1.4 -0.7,1 -1.2,2.5 -1.3,4.7 h 8.5 V 55 Z m 4.2,-21.7 c 0.7,0.7 1.1,1.6 1.1,2.7 0,1.1 -0.4,1.9 -1.1,2.7 -0.7,0.8 -1.7,1.1 -2.8,1.1 -1.1,0 -2,-0.4 -2.7,-1.1 -0.7,-0.7 -1.1,-1.6 -1.1,-2.7 0,-1.1 0.4,-1.9 1.1,-2.7 0.7,-0.7 1.6,-1.1 2.7,-1.1 1.1,0 2,0.3 2.8,1.1 z m 32.7,11.7 -6.7,11.8 7.3,13.6 h -8 L 133,59.5 h -2.3 v 10.9 h -7.6 V 45 h 7.6 v 9.9 h 2.5 l 5.5,-9.9 z m 25.9,2.7 c 2.2,2.4 3.3,5.7 3.3,10 0,2.7 -0.5,5.1 -1.5,7.1 -1,2 -2.4,3.6 -4.3,4.7 -1.9,1.1 -4.1,1.7 -6.6,1.7 -3.9,0 -6.9,-1.2 -9.1,-3.6 -2.2,-2.4 -3.3,-5.7 -3.3,-10 0,-2.7 0.5,-5.1 1.5,-7.1 1,-2 2.4,-3.6 4.3,-4.7 1.9,-1.1 4.1,-1.7 6.6,-1.7 3.9,0.1 6.9,1.3 9.1,3.6 z m -12.6,4 c -0.8,1.3 -1.1,3.3 -1.1,6 0,2.8 0.4,4.8 1.1,6.1 0.7,1.3 1.9,1.9 3.5,1.9 1.5,0 2.7,-0.6 3.4,-1.9 0.8,-1.3 1.1,-3.3 1.1,-6 0,-2.8 -0.4,-4.8 -1.1,-6.1 -0.7,-1.3 -1.9,-1.9 -3.5,-1.9 -1.5,-0.1 -2.6,0.6 -3.4,1.9 z M 61,0 57.8,26.7 31.6,29.6 58.1,32.8 61,58.2 64,32.7 89.1,29.9 64,26.4 Z m 29.1,60.5 -2,16.1 -16.3,1.7 16.6,1.9 1.7,15.4 L 92,80.2 107.7,78.5 92,76.4 Z m 43.7,-46.6 -1.9,16.3 -16,1.7 16.2,1.9 1.7,15.6 1.8,-15.6 15.3,-1.7 -15.3,-2.2 z"
     id="path4"
     style="fill:#ffffff"
     inkscape:connector-curvature="0" /></svg>