<?xml version="1.0" encoding="UTF-8" standalone="no"?>
<!-- Created with Inkscape (http://www.inkscape.org/) -->

<svg
   xmlns:dc="http://purl.org/dc/elements/1.1/"
   xmlns:cc="http://creativecommons.org/ns#"
   xmlns:rdf="http://www.w3.org/1999/02/22-rdf-syntax-ns#"
   xmlns:svg="http://www.w3.org/2000/svg"
   xmlns="http://www.w3.org/2000/svg"
   xmlns:sodipodi="http://sodipodi.sourceforge.net/DTD/sodipodi-0.dtd"
   xmlns:inkscape="http://www.inkscape.org/namespaces/inkscape"
   width="20"
   height="20"
   viewBox="0 0 5.2916665 5.2916668"
   version="1.1"
   id="svg14"
   inkscape:version="0.92.0 r15299"
   sodipodi:docname="event-time.svg">
  <defs
     id="defs8" />
  <sodipodi:namedview
     id="base"
     pagecolor="#ffffff"
     bordercolor="#666666"
     borderopacity="1.0"
     inkscape:pageopacity="0.0"
     inkscape:pageshadow="2"
     inkscape:zoom="22.4"
     inkscape:cx="6.2250731"
     inkscape:cy="10.368971"
     inkscape:document-units="mm"
     inkscape:current-layer="layer1"
     showgrid="false"
     units="px"
     inkscape:snap-bbox="true"
     inkscape:snap-bbox-midpoints="true"
     inkscape:snap-page="true"
     showguides="true"
     inkscape:guide-bbox="true"
     inkscape:window-width="1600"
     inkscape:window-height="847"
     inkscape:window-x="-8"
     inkscape:window-y="-8"
     inkscape:window-maximized="1"
     inkscape:object-nodes="false">
    <sodipodi:guide
       position="0,5.2916668"
       orientation="0,1"
       id="guide31"
       inkscape:locked="false" />
    <sodipodi:guide
       position="0,0"
       orientation="0,1"
       id="guide33"
       inkscape:locked="false" />
    <sodipodi:guide
       position="2.6458332,5.0200033"
       orientation="1,0"
       id="guide35"
       inkscape:locked="false" />
    <sodipodi:guide
       position="0.30710565,2.6458405"
       orientation="0,1"
       id="guide57"
       inkscape:locked="false" />
  </sodipodi:namedview>
  <metadata
     id="metadata11">
    <rdf:RDF>
      <cc:Work
         rdf:about="">
        <dc:format>image/svg+xml</dc:format>
        <dc:type
           rdf:resource="http://purl.org/dc/dcmitype/StillImage" />
        <dc:title></dc:title>
      </cc:Work>
    </rdf:RDF>
  </metadata>
  <g
     inkscape:label="Layer 1"
     inkscape:groupmode="layer"
     id="layer1"
     transform="translate(0,-291.70832)">
    <g
       id="g3935-0-0-2-7"
       transform="matrix(0.23801601,0,0,0.23801601,-0.21035891,291.49796)"
       style="fill:#ffffff">
      <path
         id="path3921-7-1-4-4"
         d="M 12,1 C 5.937,1 1,5.938 1,12 1,18.062 5.938,23 12,23 18.062,23 23,18.062 23,12 23,5.938 18.062,1 12,1 Z m 0,20 C 7.038,21 3,16.962 3,12 3,7.038 7.038,3 12,3 c 4.962,0 9,4.038 9,9 0,4.962 -4.038,9 -9,9 z"
         inkscape:connector-curvature="0"
         style="fill:#ffffff" />
      <path
         id="path3923-5-4-7-7"
         d="M 13,11.587 V 6 C 13,5.45 12.55,5 12,5 11.45,5 11,5.45 11,6 v 6 c 0,0.263 0.106,0.519 0.294,0.706 l 3,3 C 14.488,15.9 14.744,16 15,16 c 0.256,0 0.513,-0.1 0.706,-0.294 0.387,-0.387 0.387,-1.025 0,-1.413 z"
         inkscape:connector-curvature="0"
         style="fill:#ffffff" />
    </g>
  </g>
</svg>
