<?xml version="1.0" encoding="UTF-8"?>
<svg width="200mm" height="168.27mm" version="1.1" viewBox="0 0 200 168.26756" xmlns="http://www.w3.org/2000/svg">
 <g transform="translate(-155.49 -21.488)">
  <path style="fill:white;" class="st0" d="m193.46 137.55c-0.48825-0.48725-0.73253-1.221-0.73253-2.1366 0-1.1598 0.36606-2.0145 1.1599-2.5639 0.79359-0.5496 1.9534-0.85468 3.5406-0.85468h1.7093v4.0902c-0.85463 1.465-2.0756 2.1976-3.6627 2.1976-0.85462 0-1.5261-0.24387-2.0145-0.73253zm-4.7615-7.3254c1.8313-1.3431 4.5784-2.0146 8.058-2.0146h2.3808v-0.97666c0-1.3429-0.30523-2.3198-0.85463-2.8081-0.61044-0.48826-1.5872-0.79368-3.0523-0.79368-0.73254 0-1.6483 0.12118-2.7471 0.30572-1.0988 0.24388-2.1976 0.48825-3.2964 0.91572l-1.2209-3.4797c-1.2209 3.2965-1.7703 7.2034-1.282 11.171 0.42741-0.91577 1.0988-1.7092 2.0145-2.3196zm63.304-1.7094c-0.0614-3.5406-1.2819-5.3109-3.7238-5.3109-1.2209 0-2.1366 0.42741-2.7471 1.282-0.67154 0.85468-1.0378 2.3197-1.2209 4.3343h7.7528v-0.30572zm42.549-56.406c0 1.8924-1.5262 3.4797-3.4796 3.4797-1.8924 0-3.4796-1.5262-3.4796-3.4797 0-1.8924 1.5261-3.4796 3.4796-3.4796 1.9534 0 3.4796 1.5262 3.4796 3.4796zm35.895 28.936c-5.433 2.747-11.782 4.3953-18.314 4.3953-22.098 0-40.107-18.009-40.107-40.107 0-22.099 18.619-40.412 40.717-40.412 0.24438 0-22.221 40.412-22.221 40.412s6.2267-0.06286 7.2644 4.8836c1.2209 5.6161-3.7848 8.18-3.7848 8.18zm-40.29-24.052c3.4796 0.67169 6.5319-2.3807 5.8604-5.8603-0.36607-1.9535-1.9534-3.5406-3.9069-3.907-3.4796-0.67169-6.5319 2.3807-5.8604 5.8605 0.36606 1.8923 1.9535 3.4795 3.9069 3.9068zm-19.29-14.163-9.5231 13.003 12.636 22.221 18.619 3.7237s-9.0958-3.1743-17.093-17.215c-5.6772-10.011-4.6395-21.732-4.6395-21.732zm-80.214 45.052c1.0378 1.6481 3.2965 2.0144 4.7615 0.73253 3.8459-3.2964 11.416-9.4622 20.267-14.773 9.8283-5.9214 20.45-10.378 25.761-12.453 1.8314-0.73264 2.5639-2.8691 1.5872-4.5785l-8.1801-13.918c-0.91572-1.5262-2.9302-2.0146-4.4564-1.099l-46.7 28.997c-1.5261 0.91572-1.9534 2.9301-1.0378 4.3953zm96.025-76.185s-2.8692-0.97672-2.9912-0.97672c-8.119-7.3865-20.206-13.003-31.622-6.1046-11.599 7.0203-9.5231 16.36-7.6917 24.113 1.5872 6.7761 2.9912 12.026-2.7471 16.421-0.0614 0-2.686 0.24438-2.686 0.24438-0.5494 0.06286-0.85462 0.611-0.61049 1.0988l2.8692 4.9448c0.24438 0.42741 0.91566 0.48826 1.2209 0.06286 0 0 1.7093-2.2586 1.7093-2.3807 8.5464-6.2266 6.3488-14.59 4.7615-21.549-1.8314-7.8139-3.1133-13.735 5.4941-18.985 10.866-6.6539 21.732 1.4651 26.372 5.6162 0 0.06285 0.85462 2.1977 0.85462 2.1977 0.1222 0.42741 0.67155 0.5496 0.97672 0.24388l4.3343-4.0289c0.30522-0.18253 0.18304-0.73264-0.24438-0.91567zm11.965 117.15-1.7703 14.956-14.651 1.5873 14.834 1.7702 1.5872 14.285 1.7093-14.285 14.04-1.5872-14.04-1.9535zm-99.871-92.789-0.91568 7.8749-7.7528 0.85463 7.8139 0.91572 0.85463 7.5086 0.91567-7.5086 7.4476-0.85463-7.4476-1.0378zm119.22 51.95-0.91568 7.8749-7.7528 0.85462 7.8138 0.91578 0.85464 7.5086 0.91572-7.5086 7.4475-0.85473-7.4475-1.0378zm-99.627-81.252-1.5872 13.369-13.125 1.404 13.308 1.5873 1.404 12.758 1.5262-12.758 12.575-1.4041-12.575-1.7703zm136.8 34.247c-18.192 0.12118-39.069 6.4096-39.802 8.9125-2.3198 7.5087-8.5464 14.529-8.5464 14.529l-9.9504-5.9825s3.4186-2.686 2.5639-8.1191c-0.73254-4.7005-6.4708-6.1656-6.4708-6.1656l3.7849-6.7761s10.378-1.1599 17.093 5.2499c4.3342-1.2208 28.875-4.7614 40.412-2.9301 1.5872 0.18253 1.343 1.282 0.91567 1.282zm-49.447 2.2586c-0.91567-0.30472-1.8924 0.06286-2.0755 0.79353-0.24437 0.73264 0.36607 1.5873 1.2819 1.8924 0.91572 0.30573 1.8924-0.06286 2.0756-0.79353 0.18304-0.79348-0.36607-1.6483-1.282-1.8924zm43.404 2.0756c0 14.407-8.2412 26.86-20.328 33.026l2.9302 1.9535c12.209-6.8983 20.45-19.962 20.45-34.979 0-0.85473-0.0614-1.7094-0.0614-2.5639l-3.1133 0.30472c0.12219 0.73264 0.12219 1.5261 0.12219 2.2588zm-34.491-40.046l-1.5872 3.0521h0.24438c17.276 0.48826 31.377 12.576 34.979 28.753l3.2354 0.18253c-3.5407-17.52-18.375-30.828-36.872-31.988zm-134.3 111.77v-24.785h-17.642l-1.1598 9.5231c-0.48826 3.5408-0.85462 6.2267-1.2209 8.119-0.36607 1.8925-0.67149 3.3577-1.0988 4.4563-0.36657 1.099-0.91568 2.0146-1.5261 2.6861h-2.1977v12.697h4.9447l0.79358-7.2644h15.994l0.79358 7.2644h4.9447v-12.697zm-6.8982 0h-10.011c0.97671-0.79363 1.7092-1.7704 2.3197-2.9913 0.61054-1.2208 1.0988-2.808 1.5262-4.8225 0.42742-2.0145 0.79358-4.7006 1.1598-8.0581l0.36607-3.6016h4.6395zm112.14 16.787c-0.12219 1.0379-4.3953-0.48826-8.2412 2.625-1.4651 1.16-1.0378 4.2121-1.404 4.4563-0.67154 0.42742-1.9535-3.0523-3.5406-4.7004-1.0989-1.1599-4.09-1.8926-5.9825-1.7704-2.0756 0.18253-12.331 2.8691-14.712 0.79368-0.85462-0.73264-1.7092-1.7093-2.8081-2.7471-2.0755-1.8924-5.1278-2.1977-7.6917-0.97682-1.0378 0.48826-2.0145 1.0989-3.907 2.5639-3.4186 2.747-9.5231 9.8895-9.5231 12.331 0 3.7238 11.171 12.087 15.567 12.392 1.4651 0.12119 5.5552-2.6249 6.0435-1.7703 0.4274 0.67164-3.6017 2.625-3.3575 3.2354 0.30523 0.6717 5.1279-0.12118 5.1889 0.85468 0.0614 0.97667-5.4941 0.91572-5.5552 1.5871-0.0614 0.73259 5.7383 0.85468 5.5552 2.0755-0.18304 1.2211-7.2644-0.0629-9.7063 0.30472-2.625 0.36708-2.686 4.8837-3.5406 4.6396-1.0378-0.30472-0.24438-3.4797-1.8314-5.9216-0.79358-1.2208-1.7703-2.3807-2.5639-3.2964-2.1976-2.3198-11.782-10.317-12.942-13.43-0.18303-0.42741 0.18303-2.3197 0.30522-2.808 0.91568-3.9069-2.0755-7.6307-6.0435-8.119-7.997-1.0989-15.75-4.9447-21.976-11.232-0.67144-0.67169-1.2819-1.4041-1.8313-2.0757 0.79358 0.18254 1.5872 0.36607 2.5028 0.36607 3.1133 0 5.4941-1.1598 6.9592-3.4796 0.48826 1.0988 1.2209 1.8923 2.0755 2.4417 0.91572 0.48825 2.0756 0.79373 3.4796 0.91572l1.4651-4.5173c-0.5494-0.18303-0.97671-0.48825-1.2209-0.91572-0.24438-0.42741-0.36657-1.0378-0.36657-1.8925v-8.9737c0-2.7471-0.79359-4.7615-2.3197-6.1657-1.5262-1.3429-3.968-2.0754-7.2645-2.0754-1.2819 0-2.7471 0.12118-4.2732 0.42741-1.2209 0.24388-2.3808 0.5496-3.5406 0.97677 0.61045-1.4651 1.404-2.7472 2.1977-3.846 17.398-22.709 56.101-35.834 66.723-39.069 1.5872-0.48826 3.2964 0.18253 4.09 1.6482l10.134 18.009c0.85463 1.5261 0.91568 3.2965 0.5494 5.0058-1.1599 5.5552-3.1133 11.049-5.7993 17.581h4.3342v9.0348h2.2587l5.0058-9.0348h6.654l-6.1656 10.744 6.654 12.453h-7.2645l-5.0668-9.9506h-2.0756v9.9506h-6.8981v-17.154c-1.8314 4.212-3.9069 8.8516-6.2877 14.101l-2.4418-3.2964c-1.0378 0.67169-1.9534 1.221-2.8692 1.5262-0.85462 0.30472-1.7703 0.48826-2.686 0.48826-1.5261 0-2.747-0.36708-3.6017-1.1599-0.85463-0.79353-1.404-2.1367-1.6482-4.09h14.346c0.0614-0.67169 0.12219-1.5262 0.12219-2.5029 0-3.7237-0.91567-6.654-2.8081-8.7295-1.8924-2.0755-4.5174-3.1132-7.8749-3.1743-2.2587 0-4.2121 0.5496-5.8604 1.6482-1.6482 1.0989-2.8692 2.564-3.7238 4.4563-0.85462 1.8924-1.2819 3.9681-1.2819 6.3488 0 3.7238 0.97672 6.7151 2.9912 8.9127 2.0145 2.1977 4.8837 3.2964 8.6685 3.2964 2.9302 0 5.6162-0.91567 8.1191-2.6249-0.0614 0.0629-0.0614 0.18253-0.12219 0.24387-0.91566 2.0145-1.9535 8.6075-0.85462 9.2789 1.8924 1.16 14.59 0.24438 17.276-0.5496 1.4651-0.42741 3.4796-5.0667 4.8837-4.7615 0.5494 0.12118-1.5872 4.2732-0.97676 4.6396 0.67154 0.36607 6.0435-2.4419 6.593-1.4652 0.36607 0.67169-4.7616 3.1133-4.5174 3.907 0.30523 0.97666 6.3488 1.1597 6.2267 2.0144zm-35.834-42.732c0 0.97667 0.36606 1.7704 1.0378 2.4418 0.67153 0.67169 1.5261 0.97677 2.4418 0.97677 1.0378 0 1.8313-0.30472 2.5028-0.97677 0.67154-0.67164 0.97677-1.4651 0.97677-2.4418 0-0.97676-0.30523-1.7702-0.97677-2.4418-0.67144-0.67169-1.5261-0.97672-2.5028-0.97672-0.97676 0-1.7704 0.30472-2.4418 0.97672-0.67155 0.67164-1.0378 1.4651-1.0378 2.4418zm-10.134 0c0 0.97667 0.36607 1.7704 1.0378 2.4418 0.67149 0.67169 1.5261 0.97677 2.5028 0.97677 0.97676 0 1.8314-0.30472 2.5029-0.97677 0.67154-0.67164 1.0378-1.4651 1.0378-2.4418 0-0.97676-0.36607-1.7702-1.0378-2.4418-0.67154-0.67169-1.5261-0.97672-2.5029-0.97672-0.97672 0-1.8313 0.30472-2.5028 0.97672-0.6715 0.67164-1.0378 1.4651-1.0378 2.4418zm-7.6307 8.2412h-17.337l-0.73254 9.6452c-0.18303 2.5029-0.36606 4.3342-0.5494 5.372-0.18303 1.0379-0.48825 1.8315-0.91567 2.3199-0.36606 0.48825-1.0988 0.91561-2.0145 1.343l1.7093 5.0058c2.1366-0.48825 3.7238-1.221 4.8226-2.1978 1.0378-0.97671 1.7704-2.2586 2.1977-3.968 0.42741-1.6481 0.79358-4.212 1.0988-7.6306l0.4274-4.9448h4.3953v18.131h6.8982zm66.967-0.73249c-2.3197 0-4.3342 0.48725-6.0435 1.5261-1.7092 1.0378-2.9912 2.4418-3.9069 4.2732-0.91567 1.8313-1.404 4.0289-1.404 6.4708 0 3.9069 1.0378 6.9592 3.0522 9.0959 2.0145 2.1976 4.7616 3.2354 8.3022 3.2354 2.3197 0 4.3343-0.48825 6.0435-1.5262 1.7093-1.0378 2.9912-2.4418 3.9069-4.2731 0.91572-1.8313 1.4041-4.0291 1.4041-6.471 0-3.9069-0.97671-6.9591-2.9912-9.0958-2.0145-2.1366-4.8226-3.2353-8.3633-3.2353zm0 5.0668c1.4041 0 2.5029 0.61024 3.1744 1.7703 0.67155 1.1598 1.0378 2.9913 1.0378 5.5551 0 2.4419-0.36606 4.2732-1.0378 5.4941-0.67153 1.16-1.7703 1.7703-3.1133 1.7703-1.404 0-2.5028-0.61099-3.1744-1.7703-0.6715-1.1598-1.0378-2.9912-1.0378-5.5552 0-2.4418 0.36606-4.2731 1.0378-5.494 0.67153-1.1599 1.7093-1.7703 3.1133-1.7703z" stroke-width=".61046"/>
 </g>
</svg>
